# This file uses centimeters as units for non-parametric coordinates.

v 0.586214 14.057599 -8.590536
v 0.498664 13.885772 -8.590536
v 0.362300 13.749407 -8.590536
v 0.190473 13.661857 -8.590536
v 0.000000 13.631690 -8.590536
v -0.190473 13.661857 -8.590536
v -0.362300 13.749407 -8.590536
v -0.498663 13.885772 -8.590536
v -0.586214 14.057599 -8.590536
v -0.616382 14.248072 -8.590536
v -0.586214 14.438544 -8.590536
v -0.498663 14.610372 -8.590536
v -0.362300 14.746734 -8.590536
v -0.190472 14.834287 -8.590536
v -0.000000 14.864453 -8.590536
v 0.190472 14.834287 -8.590536
v 0.362300 14.746734 -8.590536
v 0.498663 14.610372 -8.590536
v 0.586214 14.438544 -8.590536
v 0.616382 14.248072 -8.590536
v 0.586214 14.057599 -15.031746
v 0.498664 13.885772 -15.031746
v 0.362300 13.749407 -15.031746
v 0.190473 13.661857 -15.031746
v 0.000000 13.631690 -15.031746
v -0.190473 13.661857 -15.031746
v -0.362300 13.749407 -15.031746
v -0.498663 13.885772 -15.031746
v -0.586214 14.057599 -15.031746
v -0.616382 14.248072 -15.031746
v -0.586214 14.438544 -15.031746
v -0.498663 14.610372 -15.031746
v -0.362300 14.746734 -15.031746
v -0.190472 14.834287 -15.031746
v -0.000000 14.864453 -15.031746
v 0.190472 14.834287 -15.031746
v 0.362300 14.746734 -15.031746
v 0.498663 14.610372 -15.031746
v 0.586214 14.438544 -15.031746
v 0.616382 14.248072 -15.031746
v 0.000000 14.248072 -8.590536
v 0.000000 14.248072 -19.919973
vt 0.192187 0.001885
vt 0.239610 0.001885
vt 0.239610 0.342116
vt 0.192187 0.342116
vt 0.277245 0.001885
vt 0.277245 0.342116
vt 0.139618 0.600317
vt 0.139618 0.001885
vt 0.139618 0.342116
vt 0.087050 0.001885
vt 0.087050 0.342116
vt 0.039627 0.001885
vt 0.039627 0.342116
vt 0.001992 0.001885
vt 0.001992 0.342116
vt 0.522403 0.600317
vt 0.474980 0.600317
vt 0.474980 0.260086
vt 0.522403 0.260086
vt 0.422411 0.600317
vt 0.422411 0.260086
vt 0.422411 0.001885
vt 0.369843 0.600317
vt 0.369843 0.260086
vt 0.322420 0.600317
vt 0.322420 0.260086
vt 0.284785 0.600317
vt 0.284785 0.260086
vt 0.530353 0.001885
vt 0.577776 0.001885
vt 0.577776 0.342116
vt 0.530353 0.342116
vt 0.630344 0.001885
vt 0.630344 0.342116
vt 0.630344 0.600317
vt 0.682913 0.001885
vt 0.682913 0.342116
vt 0.730336 0.001885
vt 0.730336 0.342116
vt 0.767971 0.001885
vt 0.767971 0.342116
vt 0.775921 0.001885
vt 0.823344 0.001885
vt 0.823344 0.342116
vt 0.775921 0.342116
vt 0.875912 0.001885
vt 0.875912 0.342116
vt 0.875912 0.600317
vt 0.928481 0.001885
vt 0.928481 0.342116
vt 0.975904 0.001885
vt 0.975904 0.342116
vt 0.965519 0.674433
vt 0.989682 0.721856
vt 0.827893 0.774424
vt 0.998008 0.774424
vt 0.927884 0.636798
vt 0.989682 0.826993
vt 0.880461 0.612635
vt 0.965519 0.874416
vt 0.827893 0.604309
vt 0.927884 0.912051
vt 0.775324 0.612635
vt 0.880461 0.936214
vt 0.727901 0.636798
vt 0.827893 0.944540
vt 0.690266 0.674433
vt 0.775324 0.936214
vt 0.666103 0.721856
vt 0.727901 0.912051
vt 0.657777 0.774424
vt 0.690266 0.874416
vt 0.666103 0.826993
vn 0.951057 -0.309016 0.000000
vn 0.809018 -0.587784 0.000000
vn 0.809018 -0.587784 0.000000
vn 0.951057 -0.309016 0.000000
vn 0.587787 -0.809016 0.000000
vn 0.587787 -0.809016 0.000000
vn 0.309013 -0.951058 0.000000
vn 0.309013 -0.951058 0.000000
vn 0.000000 -1.000000 0.000000
vn 0.000000 -1.000000 0.000000
vn -0.309013 -0.951058 0.000000
vn -0.309013 -0.951058 0.000000
vn -0.587787 -0.809015 0.000000
vn -0.587787 -0.809015 0.000000
vn -0.809018 -0.587784 0.000000
vn -0.809018 -0.587784 0.000000
vn -0.951057 -0.309017 0.000000
vn -0.951057 -0.309017 0.000000
vn -1.000000 0.000000 0.000000
vn -1.000000 0.000000 0.000000
vn -0.951056 0.309017 0.000000
vn -0.951056 0.309017 0.000000
vn -0.809016 0.587787 0.000000
vn -0.809016 0.587787 0.000000
vn -0.587788 0.809015 0.000000
vn -0.587788 0.809015 0.000000
vn -0.309020 0.951056 0.000000
vn -0.309020 0.951056 0.000000
vn 0.000000 1.000000 0.000000
vn 0.000000 1.000000 0.000000
vn 0.309020 0.951056 0.000000
vn 0.309020 0.951056 0.000000
vn 0.587788 0.809015 0.000000
vn 0.587788 0.809015 0.000000
vn 0.809016 0.587787 0.000000
vn 0.809016 0.587787 0.000000
vn 0.951056 0.309017 0.000000
vn 0.951056 0.309017 0.000000
vn 1.000000 0.000001 0.000000
vn 1.000000 0.000001 0.000000
vn 0.000000 0.000000 1.000000
vn 0.000000 0.000000 1.000000
vn 0.000000 0.000000 1.000000
vn 0.000000 0.000000 1.000000
vn 0.000000 0.000000 1.000000
vn 0.000000 0.000000 1.000000
vn 0.000000 0.000000 1.000000
vn 0.000000 0.000000 1.000000
vn -0.000001 0.000000 1.000000
vn -0.000001 0.000000 1.000000
vn 0.000000 0.000000 1.000000
vn 0.000000 0.000000 1.000000
vn 0.000000 0.000000 1.000000
vn 0.000000 0.000000 1.000000
vn 0.000000 0.000000 1.000000
vn 0.000000 0.000000 1.000000
vn 0.000004 0.000000 1.000000
vn 0.000004 0.000000 1.000000
vn 0.000001 0.000000 1.000000
vn 0.000001 0.000000 1.000000
vn 0.000000 0.000000 1.000000
vn 0.943585 -0.306589 -0.125104
vn 0.802662 -0.583166 -0.125104
vn 0.000022 -0.000044 -1.000000
vn 0.583170 -0.802659 -0.125105
vn 0.306586 -0.943586 -0.125105
vn 0.000000 -0.992144 -0.125104
vn -0.306586 -0.943586 -0.125105
vn -0.583170 -0.802659 -0.125105
vn -0.802662 -0.583165 -0.125105
vn -0.943585 -0.306589 -0.125105
vn -0.992144 0.000000 -0.125104
vn -0.943585 0.306589 -0.125105
vn -0.802660 0.583169 -0.125105
vn -0.583170 0.802659 -0.125104
vn -0.306593 0.943583 -0.125105
vn 0.000000 0.992144 -0.125104
vn 0.306593 0.943584 -0.125105
vn 0.583169 0.802660 -0.125105
vn 0.802660 0.583169 -0.125105
vn 0.943585 0.306589 -0.125104
vn 0.992144 0.000001 -0.125104
f 1/1/1 2/2/2 22/3/3 21/4/4
f 2/2/2 3/5/5 23/6/6 22/3/3
f 3/16/5 4/17/7 24/18/8 23/19/6
f 4/17/7 5/20/9 25/21/10 24/18/8
f 5/20/9 6/23/11 26/24/12 25/21/10
f 6/23/11 7/25/13 27/26/14 26/24/12
f 7/25/13 8/27/15 28/28/16 27/26/14
f 8/29/15 9/30/17 29/31/18 28/32/16
f 9/30/17 10/33/19 30/34/20 29/31/18
f 10/33/19 11/36/21 31/37/22 30/34/20
f 11/36/21 12/38/23 32/39/24 31/37/22
f 12/38/23 13/40/25 33/41/26 32/39/24
f 13/42/25 14/43/27 34/44/28 33/45/26
f 14/43/27 15/46/29 35/47/30 34/44/28
f 15/46/29 16/49/31 36/50/32 35/47/30
f 16/49/31 17/51/33 37/52/34 36/50/32
f 17/14/33 18/12/35 38/13/36 37/15/34
f 18/12/35 19/10/37 39/11/38 38/13/36
f 19/10/37 20/8/39 40/9/40 39/11/38
f 20/8/39 1/1/1 21/4/4 40/9/40
f 2/53/41 1/54/42 41/55/43
f 3/57/44 2/53/41 41/55/43
f 4/59/45 3/57/44 41/55/43
f 5/61/46 4/59/45 41/55/43
f 6/63/47 5/61/46 41/55/43
f 7/65/48 6/63/47 41/55/43
f 8/67/49 7/65/48 41/55/43
f 9/69/50 8/67/49 41/55/43
f 10/71/51 9/69/50 41/55/43
f 11/73/52 10/71/51 41/55/43
f 12/72/53 11/73/52 41/55/43
f 13/70/54 12/72/53 41/55/43
f 14/68/55 13/70/54 41/55/43
f 15/66/56 14/68/55 41/55/43
f 16/64/57 15/66/56 41/55/43
f 17/62/58 16/64/57 41/55/43
f 18/60/59 17/62/58 41/55/43
f 19/58/60 18/60/59 41/55/43
f 20/56/61 19/58/60 41/55/43
f 1/54/42 20/56/61 41/55/43
f 21/4/62 22/3/63 42/7/64
f 22/3/63 23/6/65 42/7/64
f 23/19/65 24/18/66 42/22/64
f 24/18/66 25/21/67 42/22/64
f 25/21/67 26/24/68 42/22/64
f 26/24/68 27/26/69 42/22/64
f 27/26/69 28/28/70 42/22/64
f 28/32/70 29/31/71 42/35/64
f 29/31/71 30/34/72 42/35/64
f 30/34/72 31/37/73 42/35/64
f 31/37/73 32/39/74 42/35/64
f 32/39/74 33/41/75 42/35/64
f 33/45/75 34/44/76 42/48/64
f 34/44/76 35/47/77 42/48/64
f 35/47/77 36/50/78 42/48/64
f 36/50/78 37/52/79 42/48/64
f 37/15/79 38/13/80 42/7/64
f 38/13/80 39/11/81 42/7/64
f 39/11/81 40/9/82 42/7/64
f 40/9/82 21/4/62 42/7/64
