# This file uses centimeters as units for non-parametric coordinates.

v -130.913589 0.000000 130.913589
v 130.913589 0.000000 130.913589
v -130.913589 43.449947 130.913589
v 130.913589 43.449947 130.913589
v -130.913589 43.449947 -130.913589
v 130.913589 43.449947 -130.913589
v -130.913589 0.000000 -130.913589
v 130.913589 0.000000 -130.913589
v 21.473024 43.449947 -233.478409
v 21.473024 43.449947 233.478409
v 21.473024 0.000000 233.478409
v 21.473024 0.000000 -233.478409
v -21.473040 43.449947 -233.478409
v -21.473040 43.449947 233.478409
v -21.473040 0.000000 233.478409
v -21.473040 0.000000 -233.478409
v 366.401520 43.449947 -43.637852
v 366.401520 0.000000 -43.637852
v 60.098782 0.000000 -77.826118
v -60.098816 0.000000 -77.826118
v -366.401520 0.000000 -43.637852
v -366.401520 43.449947 -43.637852
v -60.098816 43.449947 -77.826118
v 60.098782 43.449947 -77.826118
v 366.401520 43.449947 43.637867
v 366.401520 0.000000 43.637867
v 60.098782 0.000000 77.826141
v -60.098816 0.000000 77.826141
v -366.401520 0.000000 43.637867
v -366.401520 43.449947 43.637867
v -60.098816 43.449947 77.826141
v 60.098782 43.449947 77.826141
vt 0.194779 0.498125
vt 0.202843 0.249465
vt 0.202843 0.249465
vt 0.020941 0.876693
vt 0.340103 0.477333
vt 0.501875 0.805221
vt 0.750535 0.797157
vt 0.340103 0.477333
vt 0.880443 0.017192
vt 0.880443 0.017192
vt 0.253215 0.199094
vt 0.481083 0.336353
vt 0.253215 0.199094
vt 0.481083 0.336353
vt 0.800906 0.746785
vt 0.800906 0.746785
vt 0.982808 0.119557
vt 0.663646 0.518917
vt 0.522667 0.659897
vt 0.123307 0.979059
vt 0.522667 0.659897
vt 0.663646 0.518917
vt 0.020941 0.876693
vt 0.501875 0.191029
vt 0.982808 0.119557
vt 0.123307 0.979059
vt 0.808971 0.498125
vt 0.750535 0.797157
vt 0.808971 0.498125
vt 0.501875 0.191029
vt 0.501875 0.805221
vt 0.194779 0.498125
vt 0.317731 0.405107
vt 0.282327 0.440511
vt 0.028831 0.187016
vt 0.064235 0.151611
vt 0.435541 0.522916
vt 0.400136 0.558321
vt 0.481771 0.569147
vt 0.446367 0.604551
vt 0.599581 0.686956
vt 0.564176 0.722361
vt 0.853077 0.940452
vt 0.817672 0.975857
vt 0.521413 0.529504
vt 0.486009 0.564909
vt 0.439779 0.518679
vt 0.475183 0.483274
vt 0.639223 0.647314
vt 0.603818 0.682718
vt 0.321969 0.400869
vt 0.357374 0.365465
vt 0.892719 0.900810
vt 0.857314 0.936214
vt 0.068473 0.147373
vt 0.103878 0.111969
vt 0.108006 0.107841
vt 0.143410 0.072436
vt 0.237360 0.166386
vt 0.201955 0.201791
vt 0.147538 0.068309
vt 0.182943 0.032904
vt 0.276892 0.126854
vt 0.241488 0.162258
vn 0.683815 0.000000 -0.729656
vn 0.683815 0.000000 -0.729656
vn 0.683815 0.000000 -0.729656
vn 0.683815 0.000000 -0.729656
vn 0.000000 -1.000000 0.000000
vn 0.000000 -1.000000 0.000000
vn 0.000000 -1.000000 0.000000
vn 0.000000 -1.000000 0.000000
vn 0.683815 0.000000 0.729656
vn 0.683815 0.000000 0.729656
vn 0.683815 0.000000 0.729656
vn 0.683815 0.000000 0.729656
vn 0.000000 1.000000 0.000000
vn 0.000000 1.000000 0.000000
vn 0.000000 1.000000 0.000000
vn 0.000000 1.000000 0.000000
vn -0.347517 0.000000 -0.937674
vn -0.347517 0.000000 -0.937674
vn -0.347517 0.000000 -0.937674
vn -0.347517 0.000000 -0.937674
vn 0.347517 0.000000 -0.937674
vn 0.347517 0.000000 -0.937674
vn 0.347517 0.000000 -0.937674
vn 0.347517 0.000000 -0.937674
vn 0.000000 -1.000000 0.000000
vn 0.000000 -1.000000 0.000000
vn 0.000000 -1.000000 0.000000
vn 0.000000 -1.000000 0.000000
vn -0.683814 0.000000 -0.729656
vn -0.683814 0.000000 -0.729656
vn -0.683814 0.000000 -0.729656
vn -0.683814 0.000000 -0.729656
vn 0.000000 1.000000 0.000000
vn 0.000000 1.000000 0.000000
vn 0.000000 1.000000 0.000000
vn 0.000000 1.000000 0.000000
vn -0.683814 0.000000 0.729656
vn -0.683814 0.000000 0.729656
vn -0.683814 0.000000 0.729656
vn -0.683814 0.000000 0.729656
vn 0.000000 -1.000000 -0.000000
vn 0.000000 -1.000000 -0.000000
vn 0.000000 -1.000000 -0.000000
vn 0.000000 -1.000000 -0.000000
vn 0.000000 0.000000 -1.000000
vn 0.000000 0.000000 -1.000000
vn 0.000000 0.000000 -1.000000
vn 0.000000 0.000000 -1.000000
vn 0.000000 1.000000 0.000000
vn 0.000000 1.000000 0.000000
vn 0.000000 1.000000 0.000000
vn 0.000000 1.000000 0.000000
vn 0.000000 0.000000 1.000000
vn 0.000000 0.000000 1.000000
vn 0.000000 0.000000 1.000000
vn 0.000000 0.000000 1.000000
vn -0.347517 0.000000 0.937674
vn -0.347517 0.000000 0.937674
vn -0.347517 0.000000 0.937674
vn -0.347517 0.000000 0.937674
vn 0.000000 1.000000 0.000000
vn 0.000000 1.000000 0.000000
vn 0.000000 1.000000 0.000000
vn 0.000000 1.000000 0.000000
vn 0.000000 1.000000 0.000000
vn 0.000000 1.000000 0.000000
vn 0.000000 1.000000 0.000000
vn 0.000000 1.000000 0.000000
vn 0.000000 1.000000 0.000000
vn 0.000000 1.000000 0.000000
vn 0.000000 1.000000 0.000000
vn 0.000000 1.000000 0.000000
vn 0.347517 0.000000 0.937674
vn 0.347517 0.000000 0.937674
vn 0.347517 0.000000 0.937674
vn 0.347517 0.000000 0.937674
vn 0.000000 -1.000000 -0.000000
vn 0.000000 -1.000000 -0.000000
vn 0.000000 -1.000000 -0.000000
vn 0.000000 -1.000000 -0.000000
vn 0.000000 -1.000000 0.000000
vn 0.000000 -1.000000 0.000000
vn 0.000000 -1.000000 0.000000
vn 0.000000 -1.000000 0.000000
vn 0.000000 -1.000000 -0.000000
vn 0.000000 -1.000000 -0.000000
vn 0.000000 -1.000000 -0.000000
vn 0.000000 -1.000000 -0.000000
vn -1.000000 0.000000 0.000000
vn -1.000000 0.000000 0.000000
vn -1.000000 0.000000 0.000000
vn -1.000000 0.000000 0.000000
vn 0.000000 1.000000 0.000000
vn 0.000000 1.000000 0.000000
vn 0.000000 1.000000 0.000000
vn 0.000000 1.000000 0.000000
vn 0.000000 1.000000 0.000000
vn 0.000000 1.000000 0.000000
vn 0.000000 1.000000 0.000000
vn 0.000000 1.000000 0.000000
vn 0.000000 1.000000 0.000000
vn 0.000000 1.000000 0.000000
vn 0.000000 1.000000 0.000000
vn 0.000000 1.000000 0.000000
vn 1.000000 0.000000 0.000000
vn 1.000000 0.000000 0.000000
vn 1.000000 0.000000 0.000000
vn 1.000000 0.000000 0.000000
vn 0.000000 -1.000000 0.000000
vn 0.000000 -1.000000 0.000000
vn 0.000000 -1.000000 0.000000
vn 0.000000 -1.000000 0.000000
vn 0.000000 -1.000000 0.000000
vn 0.000000 -1.000000 0.000000
vn 0.000000 -1.000000 0.000000
vn 0.000000 -1.000000 0.000000
vn 0.000000 -1.000000 0.000000
vn 0.000000 -1.000000 0.000000
vn 0.000000 -1.000000 0.000000
vn 0.000000 -1.000000 0.000000
f 1/41/1 3/42/2 14/40/3 15/39/4
f 3/32/5 30/4/6 31/5/7 14/2/8
f 5/49/9 7/50/10 16/46/11 13/45/12
f 29/23/13 1/1/14 15/3/15 28/8/16
f 2/33/17 4/34/18 25/35/19 26/36/20
f 29/43/21 30/44/22 3/42/23 1/41/24
f 10/11/25 32/12/26 25/9/27 4/30/28
f 11/37/29 10/38/30 4/34/31 2/33/32
f 27/14/33 11/13/34 2/24/35 26/10/36
f 9/48/37 12/47/38 8/51/39 6/52/40
f 14/2/41 31/5/42 32/12/43 10/11/44
f 15/39/45 14/40/46 10/38/47 11/37/48
f 28/8/49 15/3/50 11/13/51 27/14/52
f 13/45/53 16/46/54 12/47/55 9/48/56
f 18/55/57 17/56/58 6/52/59 8/51/60
f 12/16/61 19/18/62 18/17/63 8/29/64
f 16/7/65 20/19/66 19/18/67 12/16/68
f 7/31/69 21/26/70 20/19/71 16/7/72
f 7/50/73 5/49/74 22/53/75 21/54/76
f 23/21/77 22/20/78 5/6/79 13/28/80
f 24/22/81 23/21/82 13/28/83 9/15/84
f 17/25/85 24/22/86 9/15/87 6/27/88
f 26/57/89 25/58/90 17/59/91 18/60/92
f 19/18/93 27/14/94 26/10/95 18/17/96
f 20/19/97 28/8/98 27/14/99 19/18/100
f 21/26/101 29/23/102 28/8/103 20/19/104
f 21/61/105 22/62/106 30/63/107 29/64/108
f 31/5/109 30/4/110 22/20/111 23/21/112
f 32/12/113 31/5/114 23/21/115 24/22/116
f 25/9/117 32/12/118 24/22/119 17/25/120
