# This file uses centimeters as units for non-parametric coordinates.

v -3.044125 -0.739552 3.044125
v 3.044125 -0.739552 3.044125
v -3.044125 1.057282 3.044125
v 3.044125 1.057282 3.044125
v -3.044125 1.057282 -3.044125
v 3.044125 1.057282 -3.044125
v -3.044125 -0.739552 -3.044125
v 3.044125 -0.739552 -3.044125
v 4.164647 1.057282 -0.000004
v -4.164647 1.057282 -0.000004
v -4.164647 -0.739552 -0.000004
v 4.164647 -0.739552 -0.000004
v 0.000000 1.057282 4.164646
v 0.000000 1.057282 -0.000004
v 0.000000 1.057282 -4.164658
v 0.000000 -0.739552 -4.164658
v 0.000000 -0.739552 4.164646
v 3.533550 0.458339 3.533539
v 0.000000 0.458339 4.834225
v -3.533550 0.458339 3.533539
v -4.834225 0.458339 -0.000004
v -3.533550 0.458339 -3.533554
v 0.000000 0.458339 -4.834225
v 3.533550 0.458339 -3.533554
v 4.834225 0.458339 -0.000004
v 3.533550 -0.140606 3.533539
v 0.000000 -0.140606 4.834225
v -3.533550 -0.140606 3.533539
v -4.834225 -0.140606 -0.000004
v -3.533550 -0.140606 -3.533554
v 0.000000 -0.140606 -4.834225
v 3.533550 -0.140606 -3.533554
v 4.834225 -0.140606 -0.000004
v 0.000000 2.102887 -0.000004
v -1.819076 2.102887 -0.000004
v 0.000000 2.102887 -1.819084
v -1.329644 2.102887 -1.329643
v 0.000000 3.495860 -0.000004
v -0.554793 3.495860 -0.000004
v 0.000000 3.495860 -0.360428
v -0.405524 3.495860 -0.263451
v -3.397762 -1.706856 3.397758
v -1.178711 -1.706856 4.761410
v -1.178711 -1.407384 5.059162
v -3.615403 -1.407384 3.615391
v -4.761408 -1.706856 1.178711
v -5.059162 -1.407384 1.178711
v 4.761408 -1.706856 -1.178711
v 5.059162 -1.407384 -1.178711
v 3.397760 -1.706856 -3.397770
v 3.615402 -1.407384 -3.615406
v 1.178709 -1.407384 -5.059155
v 1.178709 -1.706856 -4.761417
v -3.846921 -1.407384 -3.846928
v -1.198119 -1.407384 -5.379288
v -1.198119 -1.706856 -5.044502
v -3.602209 -1.706856 -3.602211
v -5.044496 -1.706856 -1.198120
v -5.379285 -1.407384 -1.198120
v 5.044496 -1.706856 1.198109
v 3.602209 -1.706856 3.602211
v 5.379285 -1.407384 1.198109
v 3.846922 -1.407384 3.846924
v 1.198120 -1.706856 5.044498
v 1.198120 -1.407384 5.379288
v -0.526151 -0.739552 -0.000004
v 0.000000 -0.739552 0.526150
v -0.384587 -0.739552 0.384579
v -0.384587 -0.739552 -0.384586
v 0.000000 -0.739552 -0.526157
v 0.384587 -0.739552 -0.384586
v 0.526151 -0.739552 -0.000004
v 0.384587 -0.739552 0.384579
v -1.884321 -4.928158 0.000004
v 0.000000 -4.928158 1.884319
v -1.377335 -4.928158 1.377335
v -1.377335 -4.928158 -1.377335
v 0.000000 -4.928158 -1.884319
v 1.377335 -4.928158 -1.377335
v 1.884321 -4.928158 0.000004
v 1.377335 -4.928158 1.377335
v -0.912072 -5.929196 0.000000
v 0.000000 -5.929196 0.000000
v 0.000000 -5.929196 0.912071
v -0.666672 -5.929196 0.666672
v -0.666672 -5.929196 -0.666672
v 0.000000 -5.929196 -0.912071
v 0.666672 -5.929196 -0.666672
v 0.912072 -5.929196 0.000000
v 0.666672 -5.929196 0.666672
v 0.957409 1.057282 2.148914
v 1.374083 1.057282 1.995541
v 1.527457 1.057282 1.578865
v 0.957409 1.057282 1.578865
v 0.957409 5.929196 2.148914
v 1.374083 5.929196 1.995541
v 1.527457 5.929196 1.578865
v 0.957409 5.929196 1.578865
v -2.595461 1.581751 -0.000004
v -1.897138 1.581751 -1.897141
v 0.000000 1.581751 -2.595470
v 0.000000 1.581751 -0.000004
v 0.000000 2.755404 -0.000004
v -1.007507 2.755404 -0.000004
v -0.736432 2.755404 -0.681778
v 0.000000 2.755404 -0.932743
vt 0.788604 0.513683
vt 0.852674 0.513683
vt 0.852674 0.542981
vt 0.782321 0.542981
vt 0.886707 0.608314
vt 0.886707 0.666909
vt 0.784684 0.666909
vt 0.921300 0.513683
vt 0.921300 0.542981
vt 0.886707 0.725504
vt 0.784684 0.725504
vt 0.990712 0.513683
vt 0.997777 0.542981
vt 0.988730 0.666909
vt 0.988730 0.725504
vt 0.886707 0.784098
vt 0.798815 0.784098
vt 0.974599 0.784098
vt 0.346460 0.547315
vt 0.434351 0.514963
vt 0.434351 0.635207
vt 0.314107 0.635207
vt 0.461994 0.573162
vt 0.461994 0.589621
vt 0.522243 0.547315
vt 0.474025 0.577591
vt 0.554596 0.635207
vt 0.478453 0.589621
vt 0.434351 0.755452
vt 0.522243 0.723099
vt 0.001992 0.481676
vt 0.078470 0.481676
vt 0.078470 0.510973
vt 0.009057 0.510973
vt 0.011039 0.357747
vt 0.113062 0.357747
vt 0.113062 0.416341
vt 0.011039 0.299152
vt 0.113062 0.299152
vt 0.147095 0.481676
vt 0.147095 0.510973
vt 0.025170 0.240558
vt 0.113062 0.240558
vt 0.215085 0.357747
vt 0.215085 0.299152
vt 0.217449 0.481676
vt 0.211165 0.510973
vt 0.074672 0.138266
vt 0.113062 0.138266
vt 0.200954 0.240558
vt 0.101354 0.001992
vt 0.113062 0.001992
vt 0.844345 0.916516
vt 0.870679 0.916516
vt 0.870679 0.942850
vt 0.851430 0.935764
vt 0.851430 0.897267
vt 0.870679 0.890182
vt 0.897013 0.916516
vt 0.889927 0.935764
vt 0.889927 0.897267
vt 0.567795 0.513683
vt 0.637208 0.513683
vt 0.637208 0.542981
vt 0.560730 0.542981
vt 0.671801 0.608314
vt 0.671801 0.666909
vt 0.569778 0.666909
vt 0.705833 0.513683
vt 0.705833 0.542981
vt 0.671801 0.725504
vt 0.569778 0.725504
vt 0.769903 0.513683
vt 0.776187 0.542981
vt 0.773823 0.666909
vt 0.773823 0.725504
vt 0.671801 0.784098
vt 0.583909 0.784098
vt 0.759692 0.784098
vt 0.369419 0.001992
vt 0.433488 0.001992
vt 0.439772 0.031289
vt 0.369419 0.031289
vt 0.437409 0.155218
vt 0.335386 0.155218
vt 0.335386 0.096623
vt 0.437409 0.213812
vt 0.335386 0.213812
vt 0.300793 0.031289
vt 0.300793 0.001992
vt 0.423278 0.272407
vt 0.335386 0.272407
vt 0.233363 0.155218
vt 0.233363 0.213812
vt 0.224315 0.031289
vt 0.231381 0.001992
vt 0.247494 0.272407
vt 0.335386 0.374698
vt 0.296996 0.374698
vt 0.335386 0.510972
vt 0.327780 0.510972
vt 0.805212 0.906200
vt 0.805212 0.890182
vt 0.815618 0.890182
vt 0.812818 0.901890
vt 0.821752 0.890182
vt 0.833783 0.894610
vt 0.838211 0.906641
vt 0.821752 0.906641
vt 0.001992 0.759443
vt 0.122236 0.759443
vt 0.122236 0.861734
vt 0.069714 0.861734
vt 0.122236 0.998008
vt 0.106218 0.998008
vt 0.128839 0.759443
vt 0.249083 0.759443
vt 0.181360 0.861734
vt 0.128839 0.861734
vt 0.139245 0.998008
vt 0.128839 0.998008
vt 0.863424 0.875980
vt 0.863424 0.788089
vt 0.958056 0.822121
vt 0.958056 0.886191
vt 0.755411 0.788089
vt 0.755411 0.875981
vt 0.660780 0.886191
vt 0.660780 0.822121
vt 0.856733 0.788089
vt 0.856733 0.875981
vt 0.762102 0.886191
vt 0.762102 0.822121
vt 0.997777 0.900392
vt 0.997777 0.988284
vt 0.903147 0.954251
vt 0.903147 0.890182
vt 0.552767 0.759443
vt 0.552767 0.847334
vt 0.458136 0.863448
vt 0.458136 0.794035
vt 0.654089 0.804202
vt 0.654089 0.892094
vt 0.559458 0.857502
vt 0.559458 0.788089
vt 0.451445 0.775556
vt 0.451445 0.863448
vt 0.356814 0.828855
vt 0.356814 0.759443
vt 0.255492 0.863448
vt 0.255492 0.775557
vt 0.350123 0.759443
vt 0.350123 0.828855
vt 0.187729 0.755452
vt 0.099837 0.723100
vt 0.176625 0.646312
vt 0.187729 0.650399
vt 0.067485 0.635208
vt 0.172538 0.635208
vt 0.275621 0.723100
vt 0.198833 0.646312
vt 0.099837 0.547316
vt 0.176625 0.624104
vt 0.307973 0.635208
vt 0.202920 0.635208
vt 0.187729 0.514963
vt 0.187729 0.620017
vt 0.275621 0.547316
vt 0.198833 0.624104
vt 0.571946 0.509693
vt 0.560842 0.509693
vt 0.532179 0.099923
vt 0.571946 0.099923
vt 0.552698 0.001992
vt 0.571946 0.001992
vt 0.583050 0.509693
vt 0.611714 0.099923
vt 0.591195 0.001992
vt 0.668784 0.509693
vt 0.657680 0.509693
vt 0.657680 0.099923
vt 0.697448 0.099923
vt 0.646576 0.509693
vt 0.617913 0.099923
vt 0.657680 0.001992
vt 0.676929 0.001992
vt 0.638432 0.001992
vt 0.475108 0.001992
vt 0.486212 0.001992
vt 0.486212 0.411762
vt 0.446445 0.411762
vt 0.497316 0.001992
vt 0.525979 0.411762
vt 0.486212 0.509693
vt 0.466964 0.509693
vt 0.505461 0.509693
vt 0.754519 0.509693
vt 0.743415 0.509693
vt 0.743415 0.099923
vt 0.783182 0.099923
vt 0.732311 0.509693
vt 0.703647 0.099923
vt 0.743415 0.001992
vt 0.762663 0.001992
vt 0.724166 0.001992
vt 0.789381 0.001992
vt 0.801412 0.001992
vt 0.801412 0.478610
vt 0.789381 0.478610
vt 0.808867 0.001992
vt 0.820897 0.001992
vt 0.820897 0.478610
vt 0.808867 0.478610
vt 0.868192 0.478610
vt 0.851733 0.478610
vt 0.851733 0.001992
vt 0.868192 0.001992
vt 0.828351 0.001992
vt 0.844810 0.001992
vt 0.844810 0.478610
vt 0.828351 0.478610
vt 0.335386 0.332445
vt 0.041740 0.819481
vt 0.054225 0.180519
vt 0.276549 0.332445
vt 0.209334 0.819481
vt 0.113062 0.180519
vt 0.122236 0.819481
vt 0.128839 0.819481
vt 0.122236 0.925569
vt 0.128839 0.925569
vt 0.335386 0.438533
vt 0.086814 0.925569
vt 0.087171 0.074431
vt 0.311416 0.438533
vt 0.161632 0.925569
vt 0.113062 0.074431
vn -0.512021 -0.689686 0.512023
vn 0.064934 -0.731767 0.678455
vn 0.321628 -0.694174 0.643955
vn -0.512024 -0.689686 0.512021
vn -0.134671 0.981696 0.134672
vn 0.000000 0.965485 0.260458
vn 0.000000 1.000000 0.000000
vn -0.297365 0.954557 -0.019899
vn -0.481520 -0.732309 -0.481521
vn 0.348439 -0.710243 -0.611674
vn 0.141313 -0.753978 -0.641520
vn -0.481521 -0.732309 -0.481520
vn -0.589468 -0.807792 -0.000000
vn 0.000000 -1.000000 0.000000
vn 0.000000 -0.807792 0.589468
vn -0.415422 -0.809227 0.415423
vn 0.481522 -0.732308 0.481520
vn 0.641518 -0.753978 -0.141318
vn 0.611671 -0.710244 -0.348442
vn 0.481522 -0.732308 0.481520
vn -0.678453 -0.731768 -0.064936
vn -0.643954 -0.694175 -0.321629
vn 0.000000 1.000000 0.000000
vn 0.000000 1.000000 0.000000
vn 0.000000 1.000000 0.000000
vn 0.000000 1.000000 0.000000
vn -0.641517 -0.753979 0.141317
vn -0.611670 -0.710245 0.348442
vn -0.415423 -0.809227 -0.415423
vn 0.000000 -0.807792 -0.589468
vn 0.643953 -0.694175 0.321628
vn 0.678452 -0.731769 0.064936
vn 0.512023 -0.689684 -0.512024
vn 0.512024 -0.689684 -0.512023
vn 0.000000 1.000000 0.000000
vn 0.000000 1.000000 0.000000
vn 0.000000 1.000000 0.000000
vn 0.000000 1.000000 0.000000
vn -0.019899 0.954556 -0.297366
vn 0.250019 0.968241 -0.000000
vn 0.134672 0.981696 -0.134671
vn -0.064927 -0.731759 -0.678464
vn -0.321623 -0.694167 -0.643965
vn 0.415423 -0.809227 -0.415423
vn 0.589468 -0.807792 -0.000000
vn 0.415422 -0.809227 0.415423
vn -0.348443 -0.710244 0.611671
vn -0.141318 -0.753979 0.641518
vn 0.000000 0.439017 0.898479
vn 0.634649 0.440957 0.634647
vn 0.293508 0.909783 0.293509
vn -0.634649 0.440957 0.634647
vn -0.898477 0.439020 -0.000000
vn -0.634648 0.440957 -0.634649
vn -0.356616 0.863511 -0.356615
vn 0.000000 0.439019 -0.898478
vn 0.634648 0.440957 -0.634649
vn 0.898477 0.439020 -0.000000
vn 0.014832 0.252570 0.967465
vn 0.655389 0.375412 0.655387
vn -0.689989 0.218704 0.689988
vn -0.967466 0.252568 -0.014833
vn -0.655388 0.375410 -0.655388
vn -0.014833 0.252567 -0.967466
vn 0.689989 0.218702 -0.689989
vn 0.967465 0.252568 0.014833
vn 0.000000 0.000000 1.000000
vn 0.000000 0.000000 1.000000
vn 0.000000 0.000000 1.000000
vn 0.000000 0.000000 1.000000
vn 1.000000 -0.000000 0.000000
vn 1.000000 -0.000000 0.000000
vn 1.000000 -0.000000 0.000000
vn 1.000000 -0.000000 0.000000
vn -0.249507 0.935678 -0.249507
vn -0.133823 0.921911 -0.363554
vn -0.363554 0.921911 -0.133822
vn 0.000000 0.000000 1.000000
vn 0.000000 0.000000 1.000000
vn 0.000000 0.000000 1.000000
vn 0.000000 0.000000 1.000000
vn 1.000000 0.000000 0.000000
vn 1.000000 0.000000 0.000000
vn 1.000000 0.000000 0.000000
vn 1.000000 0.000000 0.000000
vn -0.204007 0.803330 -0.559501
vn -0.393238 0.827771 -0.400199
vn -0.441872 0.759275 -0.477755
vn -0.218865 0.735305 -0.641424
vn -0.565510 0.797517 -0.210154
vn -0.652369 0.712295 -0.258942
vn 0.276915 -0.920129 -0.276915
vn -0.007599 -0.967818 -0.251538
vn 0.336178 -0.616180 -0.712255
vn 0.543797 -0.639195 -0.543796
vn -0.058455 -0.737661 0.672636
vn -0.159487 -0.730100 0.664469
vn -0.669692 0.320977 0.669692
vn -0.398051 0.302903 0.865913
vn 0.251539 -0.967817 0.007600
vn 0.712255 -0.616180 -0.336177
vn -0.865914 0.302903 0.398049
vn -0.664469 -0.730100 0.159485
vn -0.672636 -0.737661 0.058455
vn 0.664468 -0.730100 -0.159487
vn 0.672635 -0.737662 -0.058455
vn -0.251539 -0.967817 -0.007600
vn -0.276915 -0.920129 0.276914
vn -0.712255 -0.616180 0.336177
vn -0.712255 -0.616180 0.336177
vn 0.865915 0.302901 -0.398048
vn 0.669692 0.320974 -0.669693
vn 0.058462 -0.737653 -0.672644
vn 0.159494 -0.730092 -0.664476
vn 0.398047 0.302898 -0.865916
vn 0.007600 -0.967817 0.251539
vn -0.336178 -0.616181 0.712253
vn -0.336178 -0.616181 0.712253
vn -0.364009 0.486312 -0.794354
vn -0.608016 0.510522 -0.608016
vn 0.259522 -0.930214 0.259521
vn 0.469644 -0.747576 0.469643
vn 0.292243 -0.727062 0.621269
vn 0.621270 -0.727062 0.292242
vn -0.794354 0.486311 -0.364010
vn -0.259522 -0.930214 -0.259521
vn -0.621270 -0.727061 -0.292241
vn -0.469643 -0.747577 -0.469643
vn 0.608015 0.510524 0.608016
vn 0.794354 0.486312 0.364009
vn -0.292241 -0.727063 -0.621269
vn 0.364010 0.486315 0.794351
vn -0.355592 -0.864355 0.355592
vn 0.000000 -0.850067 0.526674
vn -0.526676 -0.850066 -0.000000
vn -0.000000 -0.850068 -0.526673
vn -0.355593 -0.864354 -0.355592
vn 0.355593 -0.864354 -0.355592
vn 0.526676 -0.850066 -0.000000
vn 0.355592 -0.864355 0.355592
vn -0.705291 0.071603 0.705292
vn 0.000000 0.063832 0.997961
vn -0.997961 0.063831 0.000000
vn -0.000000 0.063831 -0.997961
vn -0.705292 0.071602 -0.705291
vn 0.705292 0.071602 -0.705291
vn 0.997961 0.063831 0.000000
vn 0.705291 0.071603 0.705292
vn 0.000000 1.000000 -0.000000
vn 0.000000 1.000000 -0.000000
vn 0.000000 1.000000 0.000000
vn 0.000000 1.000000 0.000000
vn 0.345432 0.000000 0.938444
vn 0.345432 0.000000 0.938444
vn 0.345432 0.000000 0.938444
vn 0.345432 0.000000 0.938444
vn 0.938444 0.000000 0.345433
vn 0.938444 0.000000 0.345433
vn 0.938444 0.000000 0.345433
vn 0.938444 0.000000 0.345433
vn 0.000000 0.000000 -1.000000
vn 0.000000 0.000000 -1.000000
vn 0.000000 0.000000 -1.000000
vn 0.000000 0.000000 -1.000000
vn -1.000000 0.000000 0.000000
vn -1.000000 0.000000 0.000000
vn -1.000000 0.000000 0.000000
vn -1.000000 0.000000 0.000000
vn 0.000000 0.000000 1.000000
vn 0.000000 0.000000 1.000000
vn -0.784107 0.513409 -0.348695
vn -0.515236 0.584581 -0.626735
vn -0.238211 0.576215 -0.781813
vn 1.000000 -0.000000 0.000000
vn 1.000000 -0.000000 0.000000
f 42/1/1 43/2/2 44/3/3 45/4/4
f 3/19/5 13/20/6 14/21/7 10/22/8
f 54/31/9 55/32/10 56/33/11 57/34/12
f 82/53/13 83/54/14 84/55/15 85/56/16
f 61/62/17 60/63/18 62/64/19 63/65/20
f 46/80/21 42/81/1 45/82/4 47/83/22
f 39/102/23 38/103/24 40/104/25 41/105/26
f 57/96/12 58/90/27 59/89/28 54/95/9
f 86/57/29 87/58/30 83/54/14 82/53/13
f 49/70/31 48/69/32 50/73/33 51/74/34
f 95/106/35 96/107/36 97/108/37 98/109/38
f 15/29/39 14/21/7 9/27/40 6/30/41
f 53/41/42 52/40/43 51/46/34 50/47/33
f 83/54/14 87/58/30 88/61/44 89/59/45
f 84/55/15 83/54/14 89/59/45 90/60/46
f 65/9/47 64/8/48 61/12/17 63/13/20
f 13/16/6 19/10/49 18/15/50 4/18/51
f 20/11/52 19/10/49 13/16/6 3/17/5
f 21/88/53 20/87/52 3/91/5 10/92/8
f 22/94/54 21/88/53 10/92/8 5/97/55
f 5/42/55 15/43/39 23/39/56 22/38/54
f 24/45/57 23/39/56 15/43/39 6/50/41
f 9/77/40 25/71/58 24/76/57 6/79/41
f 18/72/50 25/71/58 9/77/40 4/78/51
f 19/10/49 27/6/59 26/14/60 18/15/50
f 28/7/61 27/6/59 19/10/49 20/11/52
f 29/85/62 28/84/61 20/87/52 21/88/53
f 30/93/63 29/85/62 21/88/53 22/94/54
f 22/38/54 23/39/56 31/36/64 30/35/63
f 32/44/65 31/36/64 23/39/56 24/45/57
f 25/71/58 33/67/66 32/75/65 24/76/57
f 26/68/60 33/67/66 25/71/58 18/72/50
f 10/110/67 14/111/68 102/228/69 99/223/70
f 14/116/71 15/117/72 101/226/73 102/229/74
f 15/43/39 5/42/55 100/224/75 101/227/76
f 5/97/55 10/92/8 99/222/77 100/225/75
f 35/113/78 34/112/79 103/230/80 104/233/81
f 34/119/82 36/118/83 106/236/84 103/231/85
f 36/49/86 37/48/87 105/234/88 106/237/89
f 37/99/87 35/98/90 104/232/91 105/235/88
f 1/122/92 17/123/93 43/124/94 42/125/95
f 17/5/96 27/6/97 44/3/3 43/2/2
f 27/6/59 28/7/61 45/4/98 44/3/99
f 11/126/100 1/127/92 42/128/95 46/129/101
f 28/84/61 29/85/62 47/83/102 45/82/98
f 29/85/103 11/86/104 46/80/21 47/83/22
f 33/67/105 12/66/106 48/69/32 49/70/31
f 12/130/107 8/131/108 50/132/109 48/133/110
f 32/75/65 33/67/66 49/70/111 51/74/112
f 16/37/113 31/36/114 52/40/43 53/41/42
f 31/36/64 32/44/65 51/46/112 52/40/115
f 8/134/108 16/135/116 53/136/117 50/137/118
f 30/35/63 31/36/64 55/32/119 54/31/120
f 31/36/114 16/37/113 56/33/11 55/32/10
f 16/138/116 7/139/121 57/140/122 56/141/123
f 7/142/121 11/143/100 58/144/124 57/145/122
f 11/86/104 29/85/103 59/89/28 58/90/27
f 29/85/62 30/93/63 54/95/120 59/89/125
f 2/146/126 12/147/107 60/148/127 61/149/128
f 12/66/106 33/67/105 62/64/19 60/63/18
f 33/67/66 26/68/60 63/65/129 62/64/130
f 27/6/97 17/5/96 64/8/48 65/9/47
f 17/150/93 2/151/126 61/152/128 64/153/131
f 26/14/60 27/6/59 65/9/132 63/13/129
f 17/154/93 1/155/92 68/156/133 67/157/134
f 1/155/92 11/158/100 66/159/135 68/156/133
f 7/162/121 16/166/116 70/167/136 69/163/137
f 11/158/100 7/162/121 69/163/137 66/159/135
f 16/166/116 8/168/108 71/169/138 70/167/136
f 8/168/108 12/164/107 72/165/139 71/169/138
f 12/164/107 2/160/126 73/161/140 72/165/139
f 2/160/126 17/154/93 67/157/134 73/161/140
f 67/170/134 68/171/133 76/172/141 75/173/142
f 68/179/133 66/180/135 74/181/143 76/182/141
f 69/188/137 70/189/136 78/190/144 77/191/145
f 66/180/135 69/183/137 77/184/145 74/181/143
f 70/189/136 71/192/138 79/193/146 78/190/144
f 71/197/138 72/198/139 80/199/147 79/200/146
f 72/198/139 73/201/140 81/202/148 80/199/147
f 73/176/140 67/170/134 75/173/142 81/177/148
f 75/173/142 76/172/141 85/174/16 84/175/15
f 76/182/141 74/181/143 82/185/13 85/186/16
f 77/191/145 78/190/144 87/194/30 86/195/29
f 74/181/143 77/184/145 86/187/29 82/185/13
f 78/190/144 79/193/146 88/196/44 87/194/30
f 79/200/146 80/199/147 89/203/45 88/204/44
f 80/199/147 81/202/148 90/205/46 89/203/45
f 81/177/148 75/173/142 84/175/15 90/178/46
f 13/20/6 4/25/51 92/26/149 91/23/150
f 4/25/51 9/27/40 93/28/151 92/26/149
f 9/27/40 14/21/7 94/24/152 93/28/151
f 14/21/7 13/20/6 91/23/150 94/24/152
f 91/206/153 92/207/154 96/208/155 95/209/156
f 92/210/157 93/211/158 97/212/159 96/213/160
f 93/214/161 94/215/162 98/216/163 97/217/164
f 94/218/165 91/219/166 95/220/167 98/221/168
f 100/225/75 99/222/77 35/98/90 37/99/87
f 101/227/76 100/224/75 37/48/87 36/49/86
f 102/229/74 101/226/73 36/118/83 34/119/82
f 99/223/70 102/228/69 34/112/79 35/113/78
f 104/233/81 103/230/80 38/114/169 39/115/170
f 105/235/88 104/232/91 39/100/171 41/101/172
f 106/237/89 105/234/88 41/51/172 40/52/173
f 103/231/85 106/236/84 40/120/174 38/121/175
